<svg width="22" height="22" viewBox="0 0 22 22" fill="none" xmlns="http://www.w3.org/2000/svg">
<g clip-path="url(#clip0_225_412)">
<path d="M1.07442 21.9999C0.86193 21.9999 0.654202 21.937 0.477511 21.8189C0.300819 21.7009 0.163103 21.5331 0.0817817 21.3368C0.000460159 21.1405 -0.0208133 20.9245 0.0206523 20.7161C0.0621178 20.5076 0.164459 20.3162 0.314732 20.166L20.1663 0.314429C20.3678 0.112947 20.641 -0.000244141 20.926 -0.000244141C21.2109 -0.000244141 21.4842 0.112947 21.6857 0.314429C21.8871 0.51591 22.0003 0.789178 22.0003 1.07412C22.0003 1.35905 21.8871 1.63232 21.6857 1.8338L1.83411 21.6854C1.73444 21.7852 1.61601 21.8644 1.48564 21.9184C1.35527 21.9724 1.21552 22.0001 1.07442 21.9999Z" fill="#FBB731"/>
<path d="M20.9259 21.9999C20.7848 22.0001 20.6451 21.9724 20.5147 21.9184C20.3843 21.8644 20.2659 21.7852 20.1662 21.6854L0.314673 1.8338C0.113191 1.63232 0 1.35905 0 1.07412C0 0.789178 0.113191 0.51591 0.314673 0.314429C0.516155 0.112947 0.789422 -0.000244141 1.07436 -0.000244141C1.3593 -0.000244141 1.63257 0.112947 1.83405 0.314429L21.6856 20.166C21.8359 20.3162 21.9382 20.5076 21.9797 20.7161C22.0212 20.9245 21.9999 21.1405 21.9186 21.3368C21.8372 21.5331 21.6995 21.7009 21.5228 21.8189C21.3461 21.937 21.1384 21.9999 20.9259 21.9999Z" fill="#FBB731"/>
</g>
<defs>
<clipPath id="clip0_225_412">
<rect width="22" height="22" fill="white"/>
</clipPath>
</defs>
</svg>
